<svg width="717" height="717" viewBox="0 0 717 717" fill="none" xmlns="http://www.w3.org/2000/svg">
<ellipse cx="359" cy="560" rx="135" ry="32" fill="black" fill-opacity="0.15"/>
<mask id="path-2-outside-1_2_3760" maskUnits="userSpaceOnUse" x="255.977" y="428.584" width="202" height="152" fill="black">
<rect fill="white" x="255.977" y="428.584" width="202" height="152"/>
<path fill-rule="evenodd" clip-rule="evenodd" d="M364.977 446.584C364.977 442.166 361.395 438.584 356.977 438.584C352.558 438.584 348.977 442.166 348.977 446.584V517.064C348.977 526.851 341.145 534.785 331.385 535.506C293.586 538.301 265.977 547.128 265.977 557.584C265.977 558.126 266.33 558.58 266.829 558.79C283.488 565.788 317.601 570.584 356.977 570.584C396.352 570.584 430.465 565.788 447.124 558.79C447.623 558.58 447.977 558.126 447.977 557.584C447.977 547.128 420.367 538.301 382.568 535.506C372.808 534.785 364.977 526.851 364.977 517.064V446.584Z"/>
</mask>
<path fill-rule="evenodd" clip-rule="evenodd" d="M364.977 446.584C364.977 442.166 361.395 438.584 356.977 438.584C352.558 438.584 348.977 442.166 348.977 446.584V517.064C348.977 526.851 341.145 534.785 331.385 535.506C293.586 538.301 265.977 547.128 265.977 557.584C265.977 558.126 266.33 558.58 266.829 558.79C283.488 565.788 317.601 570.584 356.977 570.584C396.352 570.584 430.465 565.788 447.124 558.79C447.623 558.58 447.977 558.126 447.977 557.584C447.977 547.128 420.367 538.301 382.568 535.506C372.808 534.785 364.977 526.851 364.977 517.064V446.584Z" fill="#00B8F0"/>
<path d="M266.829 558.79L270.702 549.57L270.702 549.57L266.829 558.79ZM447.124 558.79L450.997 568.01L450.997 568.01L447.124 558.79ZM382.568 535.506L381.831 545.479L382.568 535.506ZM331.385 535.506L332.122 545.479L331.385 535.506ZM358.977 517.064V446.584H338.977V517.064H358.977ZM275.977 557.584C275.977 559.706 274.604 559.794 276.812 558.168C278.792 556.709 282.313 554.938 287.659 553.162C298.228 549.65 313.693 546.842 332.122 545.479L330.648 525.534C311.278 526.966 294.038 529.967 281.353 534.182C275.072 536.269 269.329 538.84 264.95 542.065C260.8 545.122 255.977 550.234 255.977 557.584H275.977ZM270.702 549.57C273.284 550.655 275.977 553.457 275.977 557.584H255.977C255.977 562.795 259.375 566.506 262.956 568.01L270.702 549.57ZM356.977 560.584C317.885 560.584 285.442 555.762 270.702 549.57L262.956 568.01C281.534 575.814 317.317 580.584 356.977 580.584V560.584ZM443.252 549.57C428.511 555.762 396.068 560.584 356.977 560.584V580.584C396.636 580.584 432.419 575.814 450.997 568.01L443.252 549.57ZM437.977 557.584C437.977 553.457 440.669 550.655 443.252 549.57L450.997 568.01C454.578 566.505 457.977 562.795 457.977 557.584H437.977ZM381.831 545.479C400.26 546.842 415.725 549.65 426.294 553.162C431.64 554.938 435.161 556.709 437.141 558.168C439.349 559.794 437.977 559.706 437.977 557.584H457.977C457.977 550.234 453.153 545.122 449.003 542.065C444.625 538.84 438.881 536.269 432.6 534.182C419.915 529.967 402.675 526.966 383.306 525.534L381.831 545.479ZM354.977 446.584V517.064H374.977V446.584H354.977ZM383.306 525.534C378.429 525.173 374.977 521.281 374.977 517.064H354.977C354.977 532.421 367.187 544.397 381.831 545.479L383.306 525.534ZM338.977 517.064C338.977 521.281 335.524 525.173 330.648 525.534L332.122 545.479C346.766 544.397 358.977 532.421 358.977 517.064H338.977ZM356.977 448.584C355.872 448.584 354.977 447.689 354.977 446.584H374.977C374.977 436.643 366.918 428.584 356.977 428.584V448.584ZM356.977 428.584C347.035 428.584 338.977 436.643 338.977 446.584H358.977C358.977 447.689 358.081 448.584 356.977 448.584V428.584Z" fill="#45413C" mask="url(#path-2-outside-1_2_3760)"/>
<mask id="path-4-outside-2_2_3760" maskUnits="userSpaceOnUse" x="250.977" y="178.957" width="212" height="304" fill="black">
<rect fill="white" x="250.977" y="178.957" width="212" height="304"/>
<path fill-rule="evenodd" clip-rule="evenodd" d="M437.755 190.011C438.382 189.797 439.027 190.239 439.077 190.9L452.973 372.543C452.975 372.566 452.957 372.585 452.935 372.585C452.913 372.585 452.895 372.603 452.896 372.625C452.95 373.938 452.977 375.258 452.977 376.585C452.977 429.604 409.996 472.585 356.977 472.585C303.957 472.585 260.977 429.604 260.977 376.585C260.977 375.258 261.003 373.938 261.057 372.625C261.058 372.603 261.04 372.585 261.018 372.585C260.996 372.585 260.978 372.566 260.98 372.543L274.876 190.9C274.926 190.239 275.571 189.797 276.198 190.011C282.942 192.305 316.765 203.085 356.977 203.085C397.188 203.085 431.012 192.305 437.755 190.011Z"/>
</mask>
<path fill-rule="evenodd" clip-rule="evenodd" d="M437.755 190.011C438.382 189.797 439.027 190.239 439.077 190.9L452.973 372.543C452.975 372.566 452.957 372.585 452.935 372.585C452.913 372.585 452.895 372.603 452.896 372.625C452.95 373.938 452.977 375.258 452.977 376.585C452.977 429.604 409.996 472.585 356.977 472.585C303.957 472.585 260.977 429.604 260.977 376.585C260.977 375.258 261.003 373.938 261.057 372.625C261.058 372.603 261.04 372.585 261.018 372.585C260.996 372.585 260.978 372.566 260.98 372.543L274.876 190.9C274.926 190.239 275.571 189.797 276.198 190.011C282.942 192.305 316.765 203.085 356.977 203.085C397.188 203.085 431.012 192.305 437.755 190.011Z" fill="#00B8F0"/>
<path d="M356.977 203.085V193.085V203.085ZM274.876 190.9L264.905 190.137L274.876 190.9ZM276.198 190.011L272.978 199.478L276.198 190.011ZM260.98 372.543L270.951 373.306L260.98 372.543ZM452.896 372.625L442.905 373.03L452.896 372.625ZM261.057 372.625L271.049 373.03L261.057 372.625ZM439.077 190.9L449.048 190.137L439.077 190.9ZM437.755 190.011L434.534 180.544L437.755 190.011ZM452.973 372.543L462.944 371.78L452.973 372.543ZM462.944 371.78L449.048 190.137L429.106 191.663L443.003 373.306L462.944 371.78ZM462.977 376.585C462.977 375.123 462.947 373.668 462.888 372.219L442.905 373.03C442.952 374.208 442.977 375.393 442.977 376.585H462.977ZM356.977 482.585C415.519 482.585 462.977 435.127 462.977 376.585H442.977C442.977 424.081 404.473 462.585 356.977 462.585V482.585ZM356.977 462.585C309.48 462.585 270.977 424.081 270.977 376.585H250.977C250.977 435.127 298.434 482.585 356.977 482.585V462.585ZM270.977 376.585C270.977 375.393 271.001 374.208 271.049 373.03L251.065 372.219C251.006 373.668 250.977 375.123 250.977 376.585H270.977ZM270.951 373.306L284.847 191.663L264.905 190.137L251.009 371.78L270.951 373.306ZM272.978 199.478C280.164 201.923 315.182 213.085 356.977 213.085V193.085C318.348 193.085 285.719 182.687 279.419 180.544L272.978 199.478ZM434.534 180.544C428.235 182.687 395.605 193.085 356.977 193.085V213.085C398.771 213.085 433.789 201.923 440.976 199.478L434.534 180.544ZM284.847 191.663C284.418 197.262 278.774 201.45 272.978 199.478L279.419 180.544C272.369 178.145 265.435 183.217 264.905 190.137L284.847 191.663ZM261.018 362.585C266.819 362.585 271.393 367.522 270.951 373.306L251.009 371.78C250.563 377.609 255.172 382.585 261.018 382.585V362.585ZM452.935 362.585C447.23 362.585 442.673 367.332 442.905 373.03L462.888 372.219C463.118 377.873 458.596 382.585 452.935 382.585V362.585ZM271.049 373.03C271.28 367.332 266.723 362.585 261.018 362.585V382.585C255.357 382.585 250.836 377.873 251.065 372.219L271.049 373.03ZM449.048 190.137C448.519 183.217 441.585 178.145 434.534 180.544L440.976 199.478C435.179 201.45 429.535 197.262 429.106 191.663L449.048 190.137ZM443.003 373.306C442.56 367.522 447.134 362.585 452.935 362.585V382.585C458.781 382.585 463.39 377.609 462.944 371.78L443.003 373.306Z" fill="#45413C" mask="url(#path-4-outside-2_2_3760)"/>
<ellipse cx="356.977" cy="260.584" rx="74" ry="14" fill="#BC5E00"/>
<path fill-rule="evenodd" clip-rule="evenodd" d="M388.115 201.059C397.797 199.833 406.566 198.189 413.989 196.529L410.699 305.105C410.666 306.209 409.744 307.077 408.64 307.043L386.925 306.385C385.821 306.352 384.953 305.43 384.986 304.326L388.115 201.059Z" fill="#9F5AE5"/>
<path d="M388.115 201.059L387.487 196.099L383.247 196.636L383.118 200.908L388.115 201.059ZM413.989 196.529L418.987 196.68L419.182 190.244L412.898 191.649L413.989 196.529ZM410.699 305.105L405.701 304.953L405.701 304.954L410.699 305.105ZM408.64 307.043L408.488 312.041H408.488L408.64 307.043ZM386.925 306.385L387.076 301.388H387.076L386.925 306.385ZM384.986 304.326L379.989 304.174L379.989 304.174L384.986 304.326ZM388.744 206.02C398.602 204.771 407.527 203.097 415.08 201.408L412.898 191.649C405.604 193.28 396.992 194.895 387.487 196.099L388.744 206.02ZM415.697 305.256L418.987 196.68L408.992 196.377L405.701 304.953L415.697 305.256ZM408.488 312.041C412.352 312.158 415.58 309.121 415.697 305.256L405.701 304.954C405.752 303.297 407.135 301.996 408.791 302.046L408.488 312.041ZM386.773 311.383L408.488 312.041L408.791 302.046L387.076 301.388L386.773 311.383ZM379.989 304.174C379.872 308.038 382.909 311.266 386.773 311.383L387.076 301.388C388.732 301.438 390.034 302.821 389.984 304.477L379.989 304.174ZM383.118 200.908L379.989 304.174L389.984 304.477L393.113 201.211L383.118 200.908Z" fill="#45413C"/>
<path fill-rule="evenodd" clip-rule="evenodd" d="M286.041 260.584H282.973L275.979 363.013C275.978 363.032 275.993 363.048 276.012 363.048C276.03 363.048 276.045 363.064 276.044 363.082C275.999 364.325 275.977 365.575 275.977 366.83C275.977 416.952 312.241 457.585 356.977 457.585C401.712 457.585 437.977 416.952 437.977 366.83C437.977 365.575 437.954 364.325 437.909 363.082C437.908 363.064 437.923 363.048 437.941 363.048C437.96 363.048 437.975 363.032 437.974 363.013L430.98 260.584H427.912C418.815 266.367 390.499 270.584 356.977 270.584C323.454 270.584 295.138 266.367 286.041 260.584Z" fill="#FF8A14"/>
<path fill-rule="evenodd" clip-rule="evenodd" d="M286.041 260.584H282.973L275.979 363.013C275.978 363.032 275.993 363.048 276.012 363.048C276.03 363.048 276.045 363.064 276.044 363.082C275.999 364.325 275.977 365.575 275.977 366.83C275.977 416.952 312.241 457.585 356.977 457.585C401.712 457.585 437.977 416.952 437.977 366.83C437.977 365.575 437.954 364.325 437.909 363.082C437.908 363.064 437.923 363.048 437.941 363.048C437.96 363.048 437.975 363.032 437.974 363.013L430.98 260.584H427.912C418.815 266.367 390.499 270.584 356.977 270.584C323.454 270.584 295.138 266.367 286.041 260.584Z" fill="#FF8A14"/>
<path fill-rule="evenodd" clip-rule="evenodd" d="M276.487 377.073C281.029 422.373 315.333 457.585 356.977 457.585C398.76 457.585 433.153 422.139 437.511 376.622C411.272 382.489 383.986 385.584 355.977 385.584C328.695 385.584 302.099 382.648 276.487 377.073Z" fill="#FF6242"/>
<path fill-rule="evenodd" clip-rule="evenodd" d="M271.024 419.39C264.594 406.503 260.977 391.966 260.977 376.585C260.977 375.258 261.003 373.938 261.057 372.625C261.058 372.603 261.04 372.585 261.018 372.585C260.996 372.585 260.978 372.566 260.98 372.543L274.876 190.9C274.926 190.239 275.571 189.797 276.198 190.011C282.942 192.305 316.765 203.085 356.977 203.085C397.188 203.085 431.012 192.305 437.755 190.011C438.382 189.797 439.027 190.239 439.077 190.9L445.05 268.967C418.225 345.555 352.195 403.718 271.024 419.39Z" fill="white" fill-opacity="0.29"/>
<mask id="path-13-outside-3_2_3760" maskUnits="userSpaceOnUse" x="269.533" y="166.087" width="178" height="47" fill="black">
<rect fill="white" x="269.533" y="166.087" width="178" height="47"/>
<path fill-rule="evenodd" clip-rule="evenodd" d="M280.334 191.349C279.266 191.018 279.266 188.151 280.334 187.821C292.035 184.197 321.593 176.24 355.972 176.087C356.524 176.084 356.977 176.532 356.977 177.085V189.585L356.977 177.085C356.977 176.532 357.429 176.084 357.981 176.087C395.521 176.254 427.313 185.726 436.383 188.701C437.269 188.991 437.269 190.178 436.383 190.469C427.232 193.47 394.953 203.085 356.977 203.085C322.169 203.085 292.148 195.008 280.334 191.349Z"/>
</mask>
<path fill-rule="evenodd" clip-rule="evenodd" d="M280.334 191.349C279.266 191.018 279.266 188.151 280.334 187.821C292.035 184.197 321.593 176.24 355.972 176.087C356.524 176.084 356.977 176.532 356.977 177.085V189.585L356.977 177.085C356.977 176.532 357.429 176.084 357.981 176.087C395.521 176.254 427.313 185.726 436.383 188.701C437.269 188.991 437.269 190.178 436.383 190.469C427.232 193.47 394.953 203.085 356.977 203.085C322.169 203.085 292.148 195.008 280.334 191.349Z" fill="#00B8F0"/>
<path d="M436.383 188.701L433.266 198.203L436.383 188.701ZM356.977 177.085L366.977 177.085L356.977 177.085ZM280.334 187.821L277.376 178.268L280.334 187.821ZM355.928 166.087C320.168 166.246 289.554 174.497 277.376 178.268L283.293 197.373C294.516 193.897 323.017 186.234 356.017 186.087L355.928 166.087ZM366.977 189.585V177.085H346.977V189.585H366.977ZM346.977 177.085L346.977 189.585L366.977 189.585L366.977 177.085L346.977 177.085ZM439.499 179.199C429.97 176.073 397.051 166.261 358.025 166.087L357.936 186.087C393.991 186.247 424.656 195.379 433.266 198.203L439.499 179.199ZM356.977 213.085C396.464 213.085 429.888 203.123 439.499 199.971L433.266 180.967C424.576 183.817 393.442 193.085 356.977 193.085V213.085ZM277.376 200.901C289.669 204.708 320.765 213.085 356.977 213.085V193.085C323.574 193.085 294.628 185.307 283.293 181.796L277.376 200.901ZM433.266 198.203C424.975 195.483 424.974 183.686 433.266 180.967L439.499 199.971C449.564 196.67 449.564 182.5 439.499 179.199L433.266 198.203ZM366.977 177.085C366.977 182.101 362.896 186.109 357.936 186.087L358.025 166.087C351.962 166.06 346.977 170.964 346.977 177.085L366.977 177.085ZM277.376 178.268C273.053 179.607 271.171 183.016 270.503 184.618C269.746 186.434 269.533 188.202 269.533 189.585C269.533 190.968 269.746 192.735 270.503 194.551C271.171 196.154 273.053 199.562 277.376 200.901L283.293 181.796C287.082 182.97 288.563 185.896 288.964 186.858C289.454 188.033 289.533 189.001 289.533 189.585C289.533 190.168 289.454 191.136 288.964 192.312C288.563 193.273 287.082 196.199 283.293 197.373L277.376 178.268ZM356.017 186.087C351.057 186.109 346.977 182.101 346.977 177.085H366.977C366.977 170.964 361.991 166.06 355.928 166.087L356.017 186.087Z" fill="#45413C" mask="url(#path-13-outside-3_2_3760)"/>
<mask id="path-15-outside-4_2_3760" maskUnits="userSpaceOnUse" x="194.108" y="116.367" width="133.284" height="118.094" fill="black">
<rect fill="white" x="194.108" y="116.367" width="133.284" height="118.094"/>
<path fill-rule="evenodd" clip-rule="evenodd" d="M247.665 154.107C226.685 167.522 219.094 193.983 228.715 216.113C230.476 220.165 235.493 221.237 239.216 218.857L309.985 173.606C313.708 171.226 314.839 166.222 311.9 162.923C295.85 144.905 268.645 140.692 247.665 154.107Z"/>
</mask>
<path fill-rule="evenodd" clip-rule="evenodd" d="M247.665 154.107C226.685 167.522 219.094 193.983 228.715 216.113C230.476 220.165 235.493 221.237 239.216 218.857L309.985 173.606C313.708 171.226 314.839 166.222 311.9 162.923C295.85 144.905 268.645 140.692 247.665 154.107Z" fill="#D6B027"/>
<path d="M309.985 173.606L314.295 180.346L309.985 173.606ZM228.715 216.113L221.378 219.302L228.715 216.113ZM236.052 212.923C227.973 194.341 234.358 172.111 251.975 160.847L243.356 147.367C219.013 162.932 210.216 193.626 221.378 219.302L236.052 212.923ZM305.676 166.866L234.906 212.117L243.525 225.597L314.295 180.346L305.676 166.866ZM251.975 160.847C269.592 149.582 292.449 153.114 305.927 168.244L317.874 157.602C299.251 136.696 267.699 131.801 243.356 147.367L251.975 160.847ZM314.295 180.346C321.389 175.81 324.672 165.233 317.874 157.602L305.927 168.244C305.806 168.109 305.682 167.895 305.616 167.638C305.554 167.397 305.565 167.203 305.588 167.084C305.629 166.873 305.71 166.844 305.676 166.866L314.295 180.346ZM221.378 219.302C225.453 228.675 236.431 230.133 243.525 225.597L234.906 212.117C234.871 212.139 234.932 212.077 235.141 212.128C235.258 212.157 235.439 212.229 235.632 212.387C235.838 212.554 235.979 212.757 236.052 212.923L221.378 219.302Z" fill="#45413C" mask="url(#path-15-outside-4_2_3760)"/>
<path fill-rule="evenodd" clip-rule="evenodd" d="M309.143 174.145C296.945 155.067 271.591 149.491 252.514 161.689C233.437 173.887 227.86 199.241 240.058 218.318L309.143 174.145Z" fill="#FFEDAF"/>
<path fill-rule="evenodd" clip-rule="evenodd" d="M413.868 200.556L415.061 161.184C415.073 160.781 415.207 160.391 415.445 160.065L468.804 86.9963C469.455 86.1042 469.26 84.853 468.368 84.2016L450.817 71.385C449.927 70.7353 448.68 70.9273 448.027 71.8143L389.998 150.627C389.758 150.954 389.622 151.347 389.61 151.752L387.994 205.075C397.671 203.853 406.439 202.214 413.868 200.556Z" fill="#9F5AE5"/>
<path d="M413.868 200.556L414.956 205.436L418.748 204.59L418.865 200.708L413.868 200.556ZM415.061 161.184L410.063 161.033L410.063 161.033L415.061 161.184ZM415.445 160.065L411.407 157.117L411.407 157.117L415.445 160.065ZM468.804 86.9963L472.842 89.945L472.842 89.9449L468.804 86.9963ZM468.368 84.2016L471.317 80.1637L471.317 80.1636L468.368 84.2016ZM450.817 71.385L453.766 67.347L453.766 67.347L450.817 71.385ZM448.027 71.8143L452.053 74.7789L452.053 74.7788L448.027 71.8143ZM389.998 150.627L385.972 147.663L385.972 147.663L389.998 150.627ZM389.61 151.752L384.612 151.601L384.612 151.601L389.61 151.752ZM387.994 205.075L382.996 204.923L382.819 210.768L388.62 210.035L387.994 205.075ZM418.865 200.708L420.058 161.336L410.063 161.033L408.87 200.405L418.865 200.708ZM420.058 161.336C420.04 161.941 419.839 162.526 419.483 163.014L411.407 157.117C410.574 158.257 410.106 159.622 410.063 161.033L420.058 161.336ZM419.483 163.014L472.842 89.945L464.766 84.0475L411.407 157.117L419.483 163.014ZM472.842 89.9449C475.122 86.8228 474.439 82.4436 471.317 80.1637L465.419 88.2395C464.081 87.2624 463.789 85.3856 464.766 84.0476L472.842 89.9449ZM471.317 80.1636L453.766 67.347L447.868 75.4229L465.419 88.2395L471.317 80.1636ZM453.766 67.347C450.652 65.0734 446.286 65.7452 444.001 68.8498L452.053 74.7788C451.074 76.1094 449.203 76.3973 447.868 75.4229L453.766 67.347ZM444.001 68.8498L385.972 147.663L394.025 153.592L452.053 74.7789L444.001 68.8498ZM385.972 147.663C385.13 148.807 384.655 150.181 384.612 151.601L394.608 151.904C394.589 152.513 394.386 153.101 394.025 153.592L385.972 147.663ZM384.612 151.601L382.996 204.923L392.992 205.226L394.608 151.904L384.612 151.601ZM388.62 210.035C398.474 208.792 407.398 207.123 414.956 205.436L412.779 195.676C405.48 197.305 396.868 198.915 387.368 200.114L388.62 210.035Z" fill="#45413C"/>
</svg>
